<?xml version="1.0" encoding="utf-8"?>
<!-- Generator: Adobe Illustrator 25.2.0, SVG Export Plug-In . SVG Version: 6.00 Build 0)  -->
<svg version="1.1"
	 id="Layer_1" xmlns:cc="http://web.resource.org/cc/" xmlns:dc="http://purl.org/dc/elements/1.1/" xmlns:inkscape="http://www.inkscape.org/namespaces/inkscape" xmlns:ns1="http://sozi.baierouge.fr" xmlns:rdf="http://www.w3.org/1999/02/22-rdf-syntax-ns#" xmlns:sodipodi="http://sodipodi.sourceforge.net/DTD/sodipodi-0.dtd" xmlns:svg="http://www.w3.org/2000/svg"
	 xmlns="http://www.w3.org/2000/svg" xmlns:xlink="http://www.w3.org/1999/xlink" x="0px" y="0px" viewBox="0 0 65 65"
	 style="enable-background:new 0 0 65 65;" xml:space="preserve">
<g id="Layer_3_copy_2">
	<g>
		<path d="M32.5,5c-5.4,0-10.4,1.6-14.7,4.3l-5.8-5.8v16.1h16.1l-6.4-6.4c3.2-1.8,6.8-2.8,10.7-2.8c12.2,0,22.1,9.9,22.1,22.1
			c0,2.9-0.6,5.7-1.6,8.2l4.7,2.8c1.5-3.4,2.3-7.1,2.3-11C60,17.3,47.7,5,32.5,5z"/>
		<path d="M43.2,51.7c-3.2,1.8-6.8,2.8-10.7,2.8c-12.2,0-22.1-9.9-22.1-22.1c0-2.7,0.5-5.4,1.4-7.8l-4.7-2.9C5.8,25.1,5,28.7,5,32.5
			C5,47.7,17.3,60,32.5,60c5.4,0,10.4-1.6,14.7-4.3l5.8,5.8V45.4H36.8L43.2,51.7z"/>
	</g>
</g>
</svg>
